<?xml version="1.0" encoding="utf-8"?>
<!-- Generator: Adobe Illustrator 18.1.1, SVG Export Plug-In . SVG Version: 6.00 Build 0)  -->
<svg version="1.1" xmlns="http://www.w3.org/2000/svg" xmlns:xlink="http://www.w3.org/1999/xlink" x="0px" y="0px"
	 viewBox="0 0 20 20" enable-background="new 0 0 20 20" xml:space="preserve">
<g id="Layer_1" display="none">
	<rect x="1.1" y="1" display="inline" fill="#FFFFFF" width="17.9" height="17.8"/>
	<path display="inline" fill="#C8C8C8" d="M18,2v16H2V2H18 M20,0H0v20h20V0L20,0z"/>
</g>
<g id="Layer_2">
	<circle fill="#FFFFFF" cx="10.1" cy="10" r="9"/>
	<path fill="#C8C8C8" d="M10,2c4.4,0,8,3.6,8,8c0,4.4-3.6,8-8,8c-4.4,0-8-3.6-8-8C2,5.6,5.6,2,10,2 M10,0C4.5,0,0,4.5,0,10
		c0,5.5,4.5,10,10,10c5.5,0,10-4.5,10-10C20,4.5,15.5,0,10,0L10,0z"/>
</g>
<g id="Layer_3">
	<polygon fill="#4AB2C6" points="4,10.5 6.1,8.4 8.4,10.7 13.9,5.2 16,7.3 8.4,14.8 	"/>
</g>
</svg>
